<svg width="40" height="40" viewBox="0 0 40 40" fill="none" xmlns="http://www.w3.org/2000/svg">
    <path d="M20 40C31.0457 40 40 31.0457 40 20C40 8.9543 31.0457 0 20 0C8.9543 0 0 8.9543 0 20C0 31.0457 8.9543 40 20 40Z" fill="#25D366"/>
    <path d="M29 19.2C29 24.6 24.6 29 19.2 29C17.1 29 15.2 28.3 13.5 27.1L10 28.3L11.2 25C9.9 23.3 9 21.3 9 19.2C9 13.8 13.4 9.39999 19.2 9.39999C24.6 9.39999 29 13.8 29 19.2ZM19.2 10.8C14.2 10.8 10.4 14.6 10.4 19.2C10.4 21.2 11.1 23 12.4 24.5L11.7 26.4L13.7 25.7C15.1 26.8 17.1 27.5 19.2 27.5C24.2 27.5 28 23.7 28 19.1C28 14.5 24.2 10.8 19.2 10.8ZM24.1 21.5C24 21.4 23.8 21.3 23.4 21.2C23 21 21.8 20.4 21.4 20.3C21 20.2 20.8 20.2 20.6 20.5C20.4 20.9 19.9 21.4 19.7 21.6C19.5 21.8 19.3 21.8 19 21.6C18.6 21.4 17.8 21.1 16.9 20.3C16.2 19.7 15.7 18.9 15.5 18.6C15.3 18.3 15.5 18.1 15.7 17.9C15.8 17.8 16 17.6 16.1 17.4C16.2 17.2 16.3 17 16.4 16.8C16.5 16.6 16.4 16.4 16.3 16.2C16.2 16 15.7 14.8 15.5 14.1C15.3 13.4 15 13.5 14.8 13.5C14.6 13.5 14.4 13.5 14.2 13.5C14 13.5 13.6 13.6 13.2 14C12.8 14.3 12.2 14.9 12.2 16.1C12.2 17.3 13.1 18.4 13.2 18.6C13.3 18.8 15.7 22.5 19.1 24C19.8 24.3 20.4 24.5 20.8 24.6C21.5 24.8 22.2 24.8 22.7 24.7C23.3 24.6 24.2 24.1 24.4 23.3C24.6 22.5 24.6 21.8 24.5 21.7C24.4 21.6 24.2 21.6 24.1 21.5Z" fill="white"/>
</svg>